<?xml version="1.0" encoding="utf-8"?>
<!-- Generator: Adobe Illustrator 19.2.1, SVG Export Plug-In . SVG Version: 6.00 Build 0)  -->
<svg version="1.1" id="Layer_1" xmlns="http://www.w3.org/2000/svg" xmlns:xlink="http://www.w3.org/1999/xlink" x="0px" y="0px"
	 viewBox="0 0 545 119" style="enable-background:new 0 0 545 119;" xml:space="preserve">
<style type="text/css">
  .st0{
      stroke: #FFFFFF;
      fill:#FFFFFF;
      stroke-dasharray: 500;
      animation: anonAnimation 5s 1; 
    }
   .st1{
      stroke: #6F7DC0;
      fill:#6F7DC0;
      stroke-dasharray: 600;
      animation: chatAnimation 5s 1;
    }

    @keyframes anonAnimation{
      0%{stroke-dashoffset:500;fill:none;}
      40%{fill:rgba(255,255,255,0);}
      100%{ 
        stroke-dashoffset:0;
        fill:rgba(255,255,255,0.9);
      }
    }
    @keyframes chatAnimation{
      0%{stroke-dashoffset:600;fill:none;}
      40%{fill:rgba(111, 125, 192,0);}
      100%{ 
        stroke-dashoffset:0;
        fill:rgba(111, 125, 192,0.9);
      }
    }
  </style>
<path class="st0" d="M53.1,108.3V97h-0.2c-2.1,4.1-4.9,7.2-8.5,9.4c-3.6,2.2-7.6,3.3-12.1,3.3c-3.1,0-5.8-0.4-8.3-1.3
	s-4.5-2.1-6.3-3.7c-1.7-1.6-3-3.5-4-5.7c-0.9-2.2-1.4-4.7-1.4-7.4c0-5.7,1.8-10.3,5.3-13.7c3.6-3.4,8.9-5.6,16.1-6.7L53,68.4
	c0-12.2-4.7-18.3-14.2-18.3c-7.4,0-14.3,2.7-20.6,8.1v-8.7c1.3-1,2.8-1.8,4.5-2.6c1.7-0.8,3.4-1.4,5.3-2s3.8-1,5.7-1.3
	c2-0.3,3.9-0.5,5.7-0.5c7.1,0,12.4,2,16,6s5.4,9.9,5.4,17.7v41.3h-7.7V108.3z M36.7,77.4c-2.9,0.4-5.3,0.9-7.3,1.6
	c-2,0.6-3.7,1.5-5,2.5c-1.3,1.1-2.3,2.4-2.9,3.9c-0.6,1.6-0.9,3.5-0.9,5.7c0,1.7,0.3,3.3,0.9,4.7c0.6,1.4,1.5,2.7,2.6,3.8
	c1.1,1.1,2.5,1.9,4.2,2.4c1.6,0.6,3.5,0.9,5.6,0.9c2.8,0,5.4-0.5,7.8-1.6s4.4-2.6,6.1-4.5s3.1-4.2,4-6.8c1-2.6,1.5-5.5,1.5-8.6v-6.3
	L36.7,77.4z"/>
<path class="st0" d="M122.9,108.3V71.7c0-14.3-5.2-21.5-15.6-21.5c-2.8,0-5.3,0.5-7.7,1.6s-4.4,2.6-6.1,4.6c-1.7,1.9-3.1,4.2-4,6.9
	C88.5,66,88,68.8,88,72v36.3h-7.9V44.8H88v11h0.2c4.7-8.4,11.8-12.5,21.3-12.5c6.9,0,12.2,2.3,15.9,6.8c3.6,4.5,5.5,11,5.5,19.5
	v38.7H122.9z"/>
<path class="st0" d="M176,109.8c-4.7,0-8.9-0.8-12.7-2.4c-3.7-1.6-6.9-3.8-9.6-6.7c-2.6-2.9-4.7-6.3-6.1-10.3
	c-1.4-4-2.1-8.5-2.1-13.3c0-5.3,0.7-10,2.2-14.2s3.6-7.7,6.4-10.6c2.7-2.9,6.1-5.1,10-6.7c3.9-1.5,8.2-2.3,13-2.3
	c4.6,0,8.7,0.8,12.4,2.3s6.8,3.7,9.4,6.5c2.6,2.9,4.5,6.3,5.9,10.4s2,8.7,2,14c0,5-0.7,9.5-2.1,13.5c-1.4,4.1-3.5,7.6-6.1,10.5
	s-5.9,5.2-9.7,6.8C185.1,108.9,180.8,109.8,176,109.8z M176.6,50.2c-3.5,0-6.6,0.6-9.4,1.8c-2.8,1.2-5.2,2.9-7.2,5.2
	c-2,2.3-3.5,5.1-4.6,8.4s-1.6,7.1-1.6,11.3c0,4,0.5,7.5,1.6,10.7s2.6,5.9,4.6,8.2c2,2.3,4.4,4,7.2,5.2s6,1.8,9.4,1.8
	c3.6,0,6.7-0.6,9.4-1.8c2.7-1.2,5-2.9,6.9-5.1c1.9-2.3,3.3-5,4.3-8.3s1.5-7,1.5-11.2c0-8.6-1.9-15.1-5.7-19.6
	C189.1,52.4,183.7,50.2,176.6,50.2z"/>
<path class="st0" d="M265.6,108.3V71.7c0-14.3-5.2-21.5-15.6-21.5c-2.8,0-5.3,0.5-7.7,1.6c-2.4,1.1-4.4,2.6-6.1,4.6
	c-1.7,1.9-3.1,4.2-4,6.9c-1,2.7-1.5,5.5-1.5,8.7v36.3h-7.9V44.8h7.9v11h0.2c4.7-8.4,11.8-12.5,21.3-12.5c6.9,0,12.2,2.3,15.9,6.8
	c3.6,4.5,5.5,11,5.5,19.5v38.7H265.6z"/>
<path class="st1" d="M353.8,105c-6.9,3.2-14.7,4.8-23.5,4.8c-6.3,0-12-1.1-17.1-3.3s-9.5-5.3-13.1-9.2c-3.6-3.9-6.4-8.6-8.4-14
	s-2.9-11.3-2.9-17.7c0-6.7,1-13,3.1-18.8s5.1-10.9,9-15.1c3.9-4.3,8.6-7.6,14.1-10.1c5.5-2.4,11.7-3.7,18.6-3.7
	c7.6,0,14.3,1.2,20.3,3.5v8.8c-6.4-3.2-13.2-4.8-20.4-4.8c-5.7,0-10.9,1-15.3,3s-8.2,4.7-11.3,8.3c-3.1,3.5-5.4,7.7-7,12.5
	s-2.4,10.1-2.4,15.8c0,5.1,0.7,10,2.2,14.5c1.4,4.5,3.6,8.5,6.4,11.9s6.4,6.1,10.6,8.1s9.1,3,14.7,3c8.6,0,16.1-1.8,22.6-5.4v7.9
	H353.8z"/>
<path class="st1" d="M414.3,108.3V71c0-7.1-1.3-12.4-3.8-15.7c-2.6-3.4-6.6-5.1-12-5.1c-2.6,0-5,0.5-7.3,1.6c-2.3,1-4.3,2.5-6.1,4.5
	c-1.7,1.9-3.1,4.3-4.2,7.1c-1,2.8-1.5,5.9-1.5,9.5v35.5h-7.9v-94h7.9v41.5h0.2c5-8.3,12.1-12.5,21.3-12.5c7.1,0,12.4,2.2,15.9,6.5
	c3.6,4.3,5.3,10.7,5.3,19.2v39.3h-7.8V108.3z"/>
<path class="st1" d="M477.9,108.3V97h-0.2c-2.1,4.1-4.9,7.2-8.5,9.4c-3.6,2.2-7.6,3.3-12.1,3.3c-3.1,0-5.8-0.4-8.3-1.3
	s-4.5-2.1-6.3-3.7c-1.7-1.6-3-3.5-4-5.7c-0.9-2.2-1.4-4.7-1.4-7.4c0-5.7,1.8-10.3,5.3-13.7c3.6-3.4,8.9-5.6,16.1-6.7l19.3-2.8
	c0-12.2-4.7-18.3-14.2-18.3c-7.4,0-14.3,2.7-20.6,8.1v-8.7c1.3-1,2.8-1.8,4.5-2.6c1.7-0.8,3.4-1.4,5.3-2s3.8-1,5.7-1.3
	c2-0.3,3.9-0.5,5.7-0.5c7.1,0,12.4,2,16,6s5.4,9.9,5.4,17.7v41.3h-7.7V108.3z M461.5,77.4c-2.9,0.4-5.3,0.9-7.3,1.6
	c-2,0.6-3.7,1.5-5,2.5c-1.3,1.1-2.3,2.4-2.9,3.9c-0.6,1.6-0.9,3.5-0.9,5.7c0,1.7,0.3,3.3,0.9,4.7c0.6,1.4,1.5,2.7,2.6,3.8
	c1.1,1.1,2.5,1.9,4.2,2.4c1.6,0.6,3.5,0.9,5.5,0.9c2.8,0,5.4-0.5,7.8-1.6s4.4-2.6,6.1-4.5c1.7-1.9,3.1-4.2,4-6.8
	c1-2.6,1.5-5.5,1.5-8.6v-6.3L461.5,77.4z"/>
<path class="st1" d="M532.2,107.5c-2.7,1.4-5.7,2-8.9,2c-10.3,0-15.4-5.9-15.4-17.7V51.7h-11.2v-6.9h11.2v-16l7.9-2.6v18.6h16.4v6.9
	h-16.4v38.9c0,4.3,0.7,7.4,2.1,9.3c1.4,1.9,3.8,2.9,7.1,2.9c2.5,0,4.9-0.7,7.1-2.2v6.9H532.2z"/>
</svg>
